<svg id="Layer_1" data-name="Layer 1" xmlns="http://www.w3.org/2000/svg" xmlns:xlink="http://www.w3.org/1999/xlink" viewBox="0 0 541.43 205.96"><defs><style>.cls-1{fill:url(#New_Gradient_3);}.cls-2{fill:#fc0;}.cls-3{fill:#00428b;}</style><linearGradient id="New_Gradient_3" x1="-369.16" y1="-393.8" x2="-369.16" y2="-229.11" gradientTransform="translate(709.83 480.88) scale(1.2)" gradientUnits="userSpaceOnUse"><stop offset="0" stop-color="#0098c4"/><stop offset="1" stop-color="#c9e3f0"/></linearGradient></defs><path class="cls-1" d="M23.58,112.27s4.5,7.57,4.52,7.55l7.93-4,1.1-.55,36.36,81,3.5,7.78,8.14-2.69,19.69-6.52,8.63-2.85-2.28-8.76-10.46-40.13a85.38,85.38,0,0,0,8.41-7.16,36.61,36.61,0,0,0,1,14.33,33.26,33.26,0,0,0,17.95,21.52c9.55,4.5,21.21,4.39,32-.3a46.93,46.93,0,0,0,14.28-9.8l1.49,16,34.46-5.44-.05-31,72,35V141.68a58.94,58.94,0,0,0,8.82-1.5,73.93,73.93,0,0,0,20.73-8.39l-3,18.56,38.83,5.74L349.8,142l10.14,18.68,6.19-12,2.26,19.62,44,7.33-2.34-14.83a40,40,0,0,0,18.51-2.62,44.86,44.86,0,0,0,4.28-2l-1.77,15.84,29.31,3.8.23,12,30.54,9.31L531,76.63,489.56,67l-3.94,16.29-3.63-18L433.3,55.08l.36,27.12L441,83.76l-.55,4.91-.21-.12c-9.07-4.73-20.35-5.09-31-1A44.41,44.41,0,0,0,399.39,93l-7.31-46.37L359.7,47l-.91,5.34-34.06.36-3.9,23.94L318,73.15c-8.26-10.1-20.23-15.58-33.48-15.72l28.92-15.87-20.17-30L256.81,54.06l6.31,7.64a48.06,48.06,0,0,0-14.8,9.58L217.07,43.82,206.12,64.93l.43-20.17L157.67,60.9l1.25,26.32L167.23,85l1.24,13.33c-9.49-4.18-20.9-4-31.49.64a45.83,45.83,0,0,0-8.78,5.1c1.84-8.15,1.4-16.16-1.68-23.26a41.23,41.23,0,0,0-17.93-19.62,42.39,42.39,0,0,0-19-6.56c-16.9-2.79-37.2.47-57.18,9.19A143.24,143.24,0,0,0,12.05,74.65L4.24,79.71,9,87.65m217.27,19,9.25-9.11a44.31,44.31,0,0,0,.69,12.87Zm90.86-7.07L310.72,94l6.79-7.32,2-2.2Z"/><path class="cls-2" d="M495.67,59.33l-3.94,16.25-3.64-18L439.3,46.83,439.65,74,447,75.58l-.55,4.91-.21-.12c-9.09-4.83-20.39-5.31-31-1.3a44.83,44.83,0,0,0-9.89,5.33L398,38H365.53l-.91,5.33H330.48l-3.91,23.9-2.83-3.49a43.68,43.68,0,0,0-33.55-16.07l29-15.57L299,1.87,262.42,44l6.32,7.71a47.49,47.49,0,0,0-14.83,9.43L222.59,33.31l-11,21,.43-20.17-49,15.63,1.25,26.33,8.34-2.17,1.24,13.35c-9.52-4.28-20.95-4.2-31.57.3a46.07,46.07,0,0,0-8.79,5c1.84-8.13,1.4-16.14-1.69-23.28a41.87,41.87,0,0,0-18-19.81,43.09,43.09,0,0,0-19-6.75c-16.93-3-37.28.08-57.3,8.59A142.24,142.24,0,0,0,17.12,62L9.29,67,14,75,28.68,99.74s4.51,7.61,4.53,7.6l7.95-3.88,1.1-.54L78.7,184.29l3.5,7.82,8.17-2.61,19.73-6.31,8.64-2.76-2.28-8.78L106,131.41a84.8,84.8,0,0,0,8.42-7.07,36.84,36.84,0,0,0,1,14.33,33.81,33.81,0,0,0,18,21.71c9.57,4.6,21.25,4.61,32,0a46.46,46.46,0,0,0,14.31-9.65l1.49,16,34.54-5.08,0-31L288,166.41V131.85a57.39,57.39,0,0,0,8.84-1.41,73.07,73.07,0,0,0,20.78-8.18l-3,18.54,38.91,6.14,2.16-14,10.16,18.78,6.2-12,2.27,19.65,44.13,7.79L416,152.32a40.14,40.14,0,0,0,18.56-2.43,44.54,44.54,0,0,0,4.28-1.91l-1.77,15.81,29.37,4.11.24,12,30.6,9.63L537.2,69.4ZM95.37,104.25C94,99.53,90.88,89.36,90.88,89.36s-.62-2.19-1.34-4.71a12.62,12.62,0,0,1,7.71.83,6.64,6.64,0,0,1,3.83,4.6C102.12,95.93,100.1,100.09,95.37,104.25Zm136.39-8,9.27-9a44.7,44.7,0,0,0,.69,12.87Zm42.57-3.66a12.26,12.26,0,0,1,15.19-17.32Zm48.49-2.45-6.37-5.74,6.81-7.25,2-2.17Z"/><path class="cls-3" d="M495.67,59.33l-3.94,16.25-3.64-18L439.3,46.83,439.65,74,447,75.58l-.55,4.91-.21-.12c-9.09-4.83-20.39-5.31-31-1.3a44.83,44.83,0,0,0-9.89,5.33L398,38H365.53l-.91,5.33H330.48l-3.91,23.9-2.83-3.49a43.68,43.68,0,0,0-33.55-16.07l29-15.57L299,1.87,262.42,44l6.32,7.71a47.49,47.49,0,0,0-14.83,9.43L222.59,33.31l-11,21,.43-20.17-49,15.63,1.25,26.33,8.34-2.17,1.24,13.35c-9.52-4.28-20.95-4.2-31.57.3a46.07,46.07,0,0,0-8.79,5c1.84-8.13,1.4-16.14-1.69-23.28a41.87,41.87,0,0,0-18-19.81,43.09,43.09,0,0,0-19-6.75c-16.93-3-37.28.08-57.3,8.59A142.24,142.24,0,0,0,17.12,62L9.29,67,14,75,28.68,99.74s4.51,7.61,4.53,7.6l7.95-3.88,1.1-.54L78.7,184.29l3.5,7.82,8.17-2.61,19.73-6.31,8.64-2.76-2.28-8.78L106,131.41a84.8,84.8,0,0,0,8.42-7.07,36.84,36.84,0,0,0,1,14.33,33.81,33.81,0,0,0,18,21.71c9.57,4.6,21.25,4.61,32,0a46.46,46.46,0,0,0,14.31-9.65l1.49,16,34.54-5.08,0-31L288,166.41V131.85a57.39,57.39,0,0,0,8.84-1.41,73.07,73.07,0,0,0,20.78-8.18l-3,18.54,38.91,6.14,2.16-14,10.16,18.78,6.2-12,2.27,19.65,44.13,7.79L416,152.32a40.14,40.14,0,0,0,18.56-2.43,44.54,44.54,0,0,0,4.28-1.91l-1.77,15.81,29.37,4.11.24,12,30.6,9.63L537.2,69.4ZM323.26,77.17l2-2.17-2.48,15.16-6.37-5.74ZM297.4,15.28,308.08,29.8,277.52,45l-2.11-3.2Zm-55.68,84.86-10-3.87,9.27-9A44.7,44.7,0,0,0,241.72,100.14ZM95,127.28l12.18,46.78-19.73,6.31L46.94,89.92c-2.19,1.15-6.26,3.09-10,4.94L22.27,70.08a131.81,131.81,0,0,1,19-9.92c19.11-8.12,37.3-10.53,51.89-8a34.78,34.78,0,0,1,15.37,5.29,32.92,32.92,0,0,1,14.49,15.64C130.1,89.39,118.32,112.89,95,127.28Zm83.68,11.54a39.7,39.7,0,0,1-16.47,13.28c-17.13,7.26-34.24,0-38.82-16.25-4.43-15.74,5.88-34.43,22.48-41.57,10.58-4.48,21.21-3.42,28.83,1.75a24.86,24.86,0,0,1,10,14c.18.65.34,1.31.47,2a29.08,29.08,0,0,1,.59,7A36.43,36.43,0,0,1,178.68,138.82ZM278.92,152,207.29,116.2l.13,37.53-18.53,2.54-1.3-15.5c5.73-9.8,7.82-21.36,4.82-31.94a33.53,33.53,0,0,0-8.77-14.93L181,62.33l-8.33,2.18-.37-8,29.77-8.86,1.81,30.69,21.93-30.8L247.22,68,217.27,99.53l28.13,11.14a38.63,38.63,0,0,0,14,14.75,45.33,45.33,0,0,0,19.55,6.39Zm15.67-30.63a46.76,46.76,0,0,1-6.64,1.12c-16.43,1.6-30.21-6-35.46-18.19a27.9,27.9,0,0,1-1.5-4.58c-2.43-10.31-.37-19.52,4.72-26.73a34.14,34.14,0,0,1,5.16-5.74,41.33,41.33,0,0,1,17.87-9.08c15.67-3.78,29.46,1,37.89,11.38l-29.82,31.76c2,.36,5.25-.17,7.62-.74,7.11-1.72,11.1-5.48,14.58-9.6l11.92,10.73,3.62,3.26a60.85,60.85,0,0,1-4.9,4.53C312.79,115.18,305,118.89,294.59,121.39Zm112.72,34.2-24.38-3.72-6.48-43-9.17,23.71L353.54,103h-.15L348,137.3l-22.89-4,3.21-19.15c.87-.81,1.72-1.63,2.56-2.5l7.4-7.64-7.18-6.46L338.69,52h23.12l5.76,31.55L374.07,47h16.51l6.86,44.57c-8.73,10-13,23.3-10,35.54a32.47,32.47,0,0,0,16.43,21.54c.84.45,1.71.85,2.59,1.22Zm24.41-13.27a31.14,31.14,0,0,1-17,1.66,24.91,24.91,0,0,1-9.85-4.21,24.42,24.42,0,0,1-9.46-14.4c-1.76-7.4-.15-15.32,3.83-22.22a38,38,0,0,1,7.56-9.32,37.59,37.59,0,0,1,11.6-7.16c10.1-3.8,20-2.47,27.07,2.57a23.28,23.28,0,0,1,6.38,6.87,24.67,24.67,0,0,1,2.89,7c2.13,8.88-.42,18.41-6,26.09a38.27,38.27,0,0,1-8.7,8.62A36.52,36.52,0,0,1,431.72,142.32Zm59.85,36.08-16.94-5.06-1.47-62.42-8.52,48.15-18.48-2.93,1.32-13.89c12.06-10.19,18.47-26.26,15-40.83a32,32,0,0,0-9.55-16.36l1.55-16.35-7-1.86.47-8.73,31.83,6.4,10.7,50.75,11-45.5,24.21,5.36Z"/><path class="cls-3" d="M440.41,97.83a7.47,7.47,0,0,1,.25,2.27c-.19,4.73-4.65,8.39-10,8.18s-9.47-4.23-9.28-9c.18-4.44,4.13-7.94,9-8.17a17,17,0,0,0-2.9-.37c-8.87-.36-16.14,5.93-16.46,13.77-.33,8.35,6.39,15.22,15.14,15.57s16.14-5.93,16.48-14.28A13.49,13.49,0,0,0,440.41,97.83Z"/><path class="cls-3" d="M170.84,107.39c0,4.73-4.31,8.57-9.63,8.57s-9.63-3.84-9.63-8.57c0-4.45,3.8-8.1,8.67-8.53a17.3,17.3,0,0,0-2.91-.26c-8.89,0-15.89,6.59-15.89,14.44,0,8.36,7,14.94,15.76,14.94s15.88-6.58,15.88-14.94a13.54,13.54,0,0,0-2.6-7.91A7.74,7.74,0,0,1,170.84,107.39Z"/><path class="cls-3" d="M274.74,91.4a11,11,0,0,1,13.57-15.57Zm1.49-12.71a11,11,0,0,0-1.49,12.71l13.57-15.57A11,11,0,0,0,276.23,78.69Zm19.61-5.2A17,17,0,0,0,272.9,98.7a19,19,0,0,0,1.82,1.42L297,74.71C296.67,74.29,296.26,73.88,295.84,73.49ZM274.74,91.4a11,11,0,0,1,13.57-15.57Z"/><path class="cls-3" d="M107.55,88.63C105.81,79,93.33,73.68,80.86,80.37l3.13,11,4.94,16.23L91.18,115C100.53,109,110,101.91,107.55,88.63ZM95.13,103.28l-4.26-14s-.59-2.06-1.27-4.44a11.94,11.94,0,0,1,7.26.77,6.26,6.26,0,0,1,3.62,4.32C101.47,95.42,99.57,99.35,95.13,103.28Z"/><path d="M505.21,181.06h4.18v.61h-1.74v4.55h-.71v-4.55h-1.73Z"/><path d="M510,186.22v-5.16h1l1.48,4.36,1.47-4.36h1v5.16h-.66v-3.05c0-.1,0-.28,0-.52v-.78l-1.47,4.35h-.69l-1.48-4.35V182c0,.12,0,.31,0,.57s0,.45,0,.57v3.05Z"/></svg>