<svg id="Layer_1" data-name="Layer 1" xmlns="http://www.w3.org/2000/svg" viewBox="0 0 20 20"><defs><style>.cls-1{fill:#f4f3f3;}.cls-2{fill:#ed1c24;}</style></defs><title>pokeball</title><path class="cls-1" d="M10,13.08a3.09,3.09,0,0,1-2.88-2H1.25A8.84,8.84,0,0,0,10,18.82a8.84,8.84,0,0,0,8.75-7.73H12.88A3.09,3.09,0,0,1,10,13.08Z"/><circle class="cls-1" cx="10" cy="10" r="2.01"/><path class="cls-2" d="M10,1.18A8.84,8.84,0,0,0,1.25,8.91H7.12a3.08,3.08,0,0,1,5.76,0h5.87A8.84,8.84,0,0,0,10,1.18Z"/><path d="M10,.12A9.87,9.87,0,1,0,17,3,9.85,9.85,0,0,0,10,.12Zm6.23,16.11a8.79,8.79,0,0,1-12.46,0,8.72,8.72,0,0,1-2.52-5.14H7.12a3.08,3.08,0,0,0,5.76,0h5.87A8.72,8.72,0,0,1,16.23,16.23ZM8,10a2,2,0,1,1,2,2A2,2,0,0,1,8,10Zm4.89-1.09a3.08,3.08,0,0,0-5.76,0H1.25A8.84,8.84,0,0,1,10,1.18a8.84,8.84,0,0,1,8.75,7.73Z"/></svg>